PathFileType	4	(X/Y/Z)	C:\Users\86182\Documents\cortex\Trimmed_M3_L12.trc
DataRate	CameraRate	NumFrames	NumMarkers	Units	OrigDataRate	OrigDataStartFrame	OrigNumFrames
100.00	100.00	       70	2	mm	100.00	541	       901
Frame#	Time	gripper			box			
		X1	Y1	Z1	X2	Y2	Z2	

541	5.400	273.52576	149.79439	292.82828	275.08371	147.68004	157.08202	
542	5.410	273.51816	149.79071	292.83881	275.07803	147.68556	157.08488	
543	5.420	273.48700	149.78445	292.84079	275.01596	147.67126	157.10347	
544	5.430	273.50345	149.79250	292.84589	275.00656	147.68210	157.11293	
545	5.440	273.47562	149.79131	292.86609	275.00287	147.69919	157.12668	
546	5.450	273.48160	149.79239	292.86050	274.97318	147.67789	157.12569	
547	5.460	273.48160	149.79239	292.86050	275.02188	147.67645	157.10359	
548	5.470	273.48801	149.79272	292.85577	274.99710	147.69574	157.12440	
549	5.480	273.47391	149.79309	292.85516	275.01334	147.69620	157.12279	
550	5.490	273.48706	149.80557	292.83716	275.07819	147.70880	157.10466	
551	5.500	273.47763	149.80434	292.84528	275.01913	147.69901	157.11562	
552	5.510	273.53903	149.79155	292.82373	275.07281	147.67422	157.08597	
553	5.520	273.52533	149.79805	292.82306	275.07883	147.67522	157.08577	
554	5.530	273.51178	149.80449	292.82239	275.10233	147.67928	157.06998	
555	5.540	273.51959	149.79782	292.82721	274.97855	147.69907	157.13353	
556	5.550	273.49094	149.79567	292.84943	274.97818	147.70197	157.13564	
557	5.560	273.48145	149.80345	292.84406	275.05942	147.70335	157.11346	
558	5.570	273.46912	149.78241	292.84637	274.98276	147.69812	157.13167	
559	5.580	273.45667	149.78041	292.84833	275.00754	147.69537	157.12268	
560	5.590	273.48547	149.77884	292.83157	275.00079	147.67387	157.12614	
561	5.600	273.42050	149.78166	292.85187	274.96973	147.66724	157.11501	
562	5.610	273.47757	149.78416	292.84274	275.00177	147.66069	157.10014	
563	5.620	273.52261	149.78644	292.81888	275.03442	147.65868	157.07980	
564	5.630	273.50662	149.79546	292.81598	275.03220	147.65521	157.08521	
565	5.640	273.54105	149.79385	292.81894	275.03345	147.65810	157.08112	
566	5.650	273.52438	149.79483	292.82852	275.11588	147.67471	157.06569	
567	5.660	273.48938	149.79346	292.83038	275.02905	147.65790	157.08437	
568	5.670	273.52231	149.79709	292.82651	275.00455	147.69061	157.11996	
569	5.680	273.49176	149.80499	292.83490	274.99564	147.69019	157.12155	
570	5.690	273.50473	149.79535	292.84076	275.03079	147.67781	157.10097	
571	5.700	273.49567	149.79836	292.84229	275.07263	147.70805	157.10933	
572	5.710	273.52637	149.79216	292.83121	275.01221	147.69151	157.11865	
573	5.720	273.50339	149.78505	292.82901	275.00287	147.69919	157.12668	
574	5.730	273.49319	149.79715	292.84570	275.01913	147.67607	157.10593	
575	5.740	273.48917	149.78935	292.83200	274.97131	147.67024	157.11549	
576	5.750	273.46036	149.80000	292.85849	274.99451	147.66432	157.10109	
577	5.760	273.53433	149.79213	292.82596	275.07321	147.68831	157.09015	
578	5.770	273.47134	149.79309	292.85223	275.01913	147.68871	157.11198	
579	5.780	273.52637	149.79216	292.83121	275.05615	147.69496	157.10982	
580	5.790	273.49097	149.79236	292.85434	275.09360	147.68834	157.08621	
581	5.800	273.50333	149.80515	292.82703	275.12512	147.68364	157.07475	
582	5.810	273.51993	149.79965	292.82425	275.04865	147.69649	157.11333	
583	5.820	273.51776	149.79979	292.82550	275.11938	147.70390	157.08670	
584	5.830	273.54477	149.79303	292.81302	275.09317	147.70595	157.09229	
585	5.840	273.52258	149.79449	292.81619	275.05609	147.67409	157.08762	
586	5.850	273.53345	149.79184	292.82700	275.05011	147.67256	157.09848	
587	5.860	273.53110	149.79735	292.82031	275.02954	147.68350	157.10555	
588	5.870	273.52411	149.78360	292.81747	275.05014	147.68584	157.10388	
589	5.880	273.46399	149.78629	292.83932	274.97989	147.69043	157.12711	
590	5.890	273.49982	149.78938	292.84354	274.98984	147.67989	157.11693	
591	5.900	273.47665	149.80081	292.85120	275.03677	147.69159	157.11171	
592	5.910	273.49002	149.79536	292.85049	274.99994	147.71950	157.14166	
593	5.920	273.48694	149.78610	292.83835	275.00195	147.70500	157.13098	
594	5.930	273.49503	149.79613	292.84604	275.05710	147.69574	157.10831	
595	5.940	273.48483	149.80251	292.84323	275.06049	147.68271	157.09511	
596	5.950	273.53232	149.78384	292.80698	274.98798	147.67244	157.11150	
597	5.960	273.47672	149.80484	292.84512	275.08273	147.68364	157.08881	
598	5.970	273.51343	149.79684	292.83276	274.99582	147.69243	157.12396	
599	5.980	273.53305	149.78439	292.81036	275.08875	147.66895	157.07077	
600	5.990	273.52170	149.79568	292.82901	275.05368	147.67395	157.08438	
601	6.000	273.50311	149.79689	292.83954	275.04456	147.68604	157.10240	
602	6.010	273.48853	149.79321	292.82193	275.03656	147.67552	157.09953	
603	6.020	273.50256	149.79219	292.84692	275.05014	147.68584	157.10388	
604	6.030	273.46729	149.79767	292.84805	275.01816	147.67796	157.10954	
605	6.040	273.49985	149.79129	292.85007	275.00378	147.67007	157.10823	
606	6.050	273.47998	149.79231	292.86169	275.00336	147.70750	157.13742	
607	6.060	273.46307	149.79796	292.86444	274.98462	147.68661	157.12309	
608	6.070	273.48386	149.79156	292.84622	274.95898	147.69511	157.13634	
609	6.080	273.48734	149.79376	292.85464	275.04181	147.67300	157.09366	
610	6.090	273.51788	149.79660	292.82550	274.98108	147.67734	157.11583	
